<svg width="228" height="229" viewBox="0 0 228 229" fill="none" xmlns="http://www.w3.org/2000/svg">
<g filter="url(#filter0_d)">
<mask id="path-1-inside-1" fill="white">
<path d="M223.084 111.439C223.59 170.224 175.162 218.299 114.916 218.817C54.6711 219.336 5.42242 172.102 4.91634 113.317C4.41026 54.5326 52.8384 6.45778 113.084 5.93913C173.329 5.42047 222.578 52.6544 223.084 111.439ZM63.7845 112.811C64.0174 139.871 86.6886 161.615 114.422 161.376C142.155 161.138 164.448 139.007 164.216 111.946C163.983 84.885 141.311 63.1413 113.578 63.3801C85.8449 63.6189 63.5515 85.7496 63.7845 112.811Z"/>
</mask>
<path d="M223.084 111.439C223.59 170.224 175.162 218.299 114.916 218.817C54.6711 219.336 5.42242 172.102 4.91634 113.317C4.41026 54.5326 52.8384 6.45778 113.084 5.93913C173.329 5.42047 222.578 52.6544 223.084 111.439ZM63.7845 112.811C64.0174 139.871 86.6886 161.615 114.422 161.376C142.155 161.138 164.448 139.007 164.216 111.946C163.983 84.885 141.311 63.1413 113.578 63.3801C85.8449 63.6189 63.5515 85.7496 63.7845 112.811Z" fill="url(#paint0_linear)" stroke="#FBEEE9" stroke-width="10" mask="url(#path-1-inside-1)"/>
<path d="M72.284 92.0066C80.8432 92.0066 87.7818 87.7688 87.7818 82.5411C87.7818 77.3134 80.8432 73.0756 72.284 73.0756C63.7248 73.0756 56.7862 77.3134 56.7862 82.5411C56.7862 87.7688 63.7248 92.0066 72.284 92.0066Z" fill="#FAEFDC" stroke="#FAEFDC" stroke-width="5" stroke-miterlimit="10"/>
<path d="M173.984 43.927C171.404 42.1874 168.735 40.583 165.988 39.1204C160.416 33.5173 148.939 28.3605 143.102 26.1358C129.989 21.1542 116.075 18.613 102.047 18.6375C80.0122 18.6375 54.4584 27.8146 35.5822 42.5674C34.3359 43.0275 33.639 43.3193 33.584 43.3433C47.1454 27.6793 65.0168 16.3527 84.9708 10.775C104.925 5.19737 126.079 5.61538 145.797 11.9769C149.222 19.5568 153.64 26.6479 158.933 33.0641C159.235 33.4315 159.537 33.7954 159.846 34.1559C166.383 37.9703 168.422 38.9488 173.984 43.927Z" fill="#FAF5E8" stroke="#FAF5E8" stroke-miterlimit="10"/>
<path d="M142.906 26.4105C140.074 24.6891 137.34 22.8105 134.718 20.7833C129.712 16.8978 125.214 12.3994 121.328 7.39355C129.663 7.73327 137.904 9.28182 145.794 11.9907L161.36 36.0236C154.974 33.2927 148.804 30.079 142.906 26.4105Z" fill="#FBE09E"/>
<path d="M158.064 175.727C158.051 175.721 158.038 175.713 158.027 175.703C157.738 175.528 157.45 175.36 157.165 175.164C157.151 175.158 157.138 175.15 157.127 175.14C151.348 171.442 146.31 166.699 142.271 161.153C135.626 152.066 132.039 141.102 132.03 129.845C132.085 128.794 132.112 127.739 132.112 126.679C132.113 113.177 127.602 100.062 119.296 89.4179C110.99 78.7734 99.3644 71.21 86.2672 67.9294C73.1699 64.6487 59.352 65.839 47.0087 71.3112C34.6654 76.7833 24.5048 86.2234 18.1412 98.1316C18.9075 100.934 19.8959 103.671 21.0973 106.317C19.6521 104.295 18.3467 102.178 17.1902 99.9787C13.6981 107.074 11.639 114.788 11.1305 122.68C11.0458 124 11.0023 125.333 11 126.679C10.9971 131.774 11.635 136.85 12.8986 141.786C13.5486 144.075 14.2719 146.329 15.0684 148.549C22.8003 170.084 37.3816 188.488 56.5767 200.941L56.7724 201.068C69.8695 209.502 84.6845 214.906 100.136 216.883C115.588 218.861 131.286 217.364 146.086 212.501C146.477 212.374 146.865 212.243 147.253 212.109C148.949 211.53 150.624 210.908 152.279 210.242C153.696 209.674 155.098 209.076 156.485 208.446C159.06 206.971 161.276 204.944 162.974 202.51C164.672 200.076 165.809 197.296 166.304 194.37C166.841 190.801 166.352 187.152 164.893 183.851C163.434 180.55 161.065 177.732 158.064 175.727ZM62.0562 81.3978C62.3378 78.2632 67.9203 76.2067 74.5259 76.7972C81.1315 77.3877 86.2608 80.409 85.9793 83.5402C85.6978 86.6713 80.1153 88.7347 73.5096 88.1408C66.904 87.5468 61.7747 84.5118 62.0562 81.3978Z" fill="#FBE09E"/>
<path d="M21.1042 106.306C16.3456 99.6556 13.1531 92.0147 11.7657 83.9556C13.7992 76.646 16.6231 69.5799 20.1875 62.8821C17.3957 69.806 16.0376 77.2243 16.1951 84.6881C16.3527 92.152 18.0227 99.5063 21.1042 106.306Z" fill="#FAF5E8"/>
<path d="M139.334 185.296H139.295" stroke="#FAEFDC" stroke-width="5" stroke-miterlimit="10"/>
<path d="M173.706 45.5235C146.601 31.811 119.165 43.5254 114.822 45.4102C114.626 45.4952 114.413 45.5333 114.2 45.5213C113.986 45.5094 113.778 45.4479 113.593 45.3416C81.9795 27.4885 42.6994 39.9788 33.5978 43.3434C43.3821 35.7529 54.2871 29.73 65.9221 25.4904C76.8395 20.9681 88.5443 18.6519 100.361 18.6753C106.448 18.5998 124.446 18.4659 141.331 27.0971C145.763 29.3665 150.635 31.6394 153.12 32.9749C160.208 36.775 167.081 40.9643 173.706 45.5235Z" fill="#FBB89E"/>
<path d="M218.926 112.689C218.971 119.456 218.396 126.214 217.209 132.876C215.836 140.351 213.244 147.519 210.429 153.74C210.902 150.541 211.318 147.183 211.654 143.677C212.035 139.739 212.279 135.959 212.423 132.348C212.728 131.522 212.958 130.671 213.11 129.804C213.398 128.092 213.398 126.344 213.11 124.633C212.729 122.027 211.599 114.79 209.838 105.022C208.123 97.9426 205.732 91.0444 202.697 84.4225C193.511 64.4761 178.818 47.5689 160.347 35.6906L158.916 34.8391C158.779 34.4894 158.564 34.1758 158.287 33.9224C158.181 33.8218 158.067 33.731 157.944 33.6512L157.292 33.2015C152.34 26.8429 148.322 19.8091 145.361 12.3134C161.975 17.4502 177.021 26.7006 189.104 39.2063C208.263 58.864 218.967 85.2393 218.926 112.689Z" fill="#F7B16C" stroke="#F7B16C" stroke-miterlimit="10"/>
<path d="M215.297 135.3C217.113 131.647 214.765 149.225 203.318 166.57" stroke="#F7B16C" stroke-width="3" stroke-miterlimit="10"/>
<path d="M204.815 164.857C193.829 165.544 190.564 152.782 190.564 152.782C190.564 152.782 191.326 152.611 190.444 169.097C189.561 185.584 178.056 195.286 178.056 195.286C178.056 195.286 194.193 183.661 204.815 164.857Z" fill="#F7B16C" stroke="#F7B16C" stroke-miterlimit="10"/>
<path d="M13.6059 142.225C13.064 140.418 12.757 138.549 12.6926 136.663C12.442 129.24 14.3749 112.373 35.5685 104.157C63.203 93.4452 99.4275 106.948 108.8 145.559C118.173 184.169 139.923 180.183 148.242 191.908C156.561 203.633 147.589 211.237 146.288 211.934C143.075 213.651 131.278 216.339 119.217 217.304C106.455 218.334 80.3899 217.915 56.7793 201.051C40.485 189.412 24.8533 179.964 13.6059 142.225Z" fill="#F7B16C" stroke="#F7B16C" stroke-miterlimit="10"/>
<path d="M156.506 208.429C142.962 214.563 128.262 217.724 113.394 217.699C65.5856 217.699 25.3408 185.58 12.9192 141.755M12.9192 141.755C9.33372 127.754 10.8553 112.934 17.2108 99.9546M12.9192 141.755C13.5059 144.051 14.2305 146.309 15.089 148.518M18.179 98.1075C24.5452 86.2047 34.7056 76.77 47.0467 71.3017C59.3878 65.8333 73.2021 64.6448 86.2959 67.9249C99.3897 71.2049 111.012 78.7655 119.318 89.406C127.624 100.046 132.137 113.157 132.14 126.655C132.14 127.716 132.112 128.774 132.057 129.821" stroke="#FAF5E8" stroke-width="5" stroke-miterlimit="10"/>
<path d="M157.11 175.126C157.121 175.136 157.134 175.144 157.148 175.15C157.439 175.322 157.728 175.493 158.009 175.689C161.022 177.692 163.4 180.512 164.866 183.819C166.331 187.126 166.823 190.783 166.283 194.359C165.791 197.283 164.658 200.061 162.965 202.495C161.272 204.929 159.061 206.957 156.492 208.436" stroke="#FAF5E8" stroke-width="5" stroke-miterlimit="10"/>
<path d="M158.064 175.727C158.051 175.721 158.038 175.713 158.027 175.703C157.738 175.528 157.45 175.36 157.165 175.164C157.151 175.158 157.138 175.15 157.127 175.14C142.213 165.582 132.044 148.862 132.044 129.821" stroke="#FAF5E8" stroke-width="5" stroke-miterlimit="10"/>
<path d="M204.238 164.857C197.554 176.59 188.668 186.922 178.067 195.287M204.036 164.851C196.483 163.687 190.073 157.05 190.162 149.16M190.248 150.997C191.782 166.955 189.863 177.31 186.969 183.112C186.89 183.277 186.808 183.455 186.725 183.6C184.493 187.933 181.573 191.876 178.077 195.273" stroke="#FAF5E8" stroke-width="5" stroke-miterlimit="10" stroke-linecap="round"/>
<path d="M11.7656 83.9556C13.7991 76.6461 16.623 69.5799 20.1874 62.8822" stroke="#FAF5E8" stroke-width="5" stroke-miterlimit="10" stroke-linecap="round"/>
<path d="M204.238 164.857C213.192 150.159 218.744 135.122 218.744 112.294C218.744 54.0758 171.547 6.89232 113.342 6.89232C98.2084 6.87774 83.2491 10.1267 69.4844 16.4177C55.7198 22.7087 43.4736 31.8938 33.5806 43.3468" stroke="#FAF5E8" stroke-width="5" stroke-miterlimit="10" stroke-linecap="round"/>
<path d="M210.102 154.039C223.812 81.3361 173.267 45.6918 173.267 45.6918C147.249 29.1915 114.379 45.5819 114.379 45.5819C94.9126 31.6291 45.3705 35.0521 33.5806 43.3331C33.5806 43.3331 95.3555 -15.5132 173.267 45.6918" stroke="#FAF5E8" stroke-width="5" stroke-miterlimit="10"/>
<path d="M21.1075 106.31C18.0305 99.5085 16.3629 92.1546 16.2054 84.6915C16.0478 77.2283 17.4036 69.8106 20.1908 62.8856" stroke="#FAF5E8" stroke-width="5" stroke-miterlimit="10"/>
<path d="M21.1076 106.31C16.3452 99.6599 13.1523 92.017 11.769 83.9556" stroke="#FAF5E8" stroke-width="5" stroke-miterlimit="10" stroke-linecap="round"/>
<path d="M144.369 11.953C144.369 11.953 150.549 26.7813 158.648 35.4641" stroke="#FAF5E8" stroke-width="5" stroke-miterlimit="10" stroke-linecap="round"/>
<path d="M119.327 7.39349C119.327 7.39349 127.625 18.6684 142.041 26.7675" stroke="#FAF5E8" stroke-width="5" stroke-miterlimit="10" stroke-linecap="round"/>
</g>
<defs>
<filter id="filter0_d" x="0" y="4.39227" width="228" height="223.807" filterUnits="userSpaceOnUse" color-interpolation-filters="sRGB">
<feFlood flood-opacity="0" result="BackgroundImageFix"/>
<feColorMatrix in="SourceAlpha" type="matrix" values="0 0 0 0 0 0 0 0 0 0 0 0 0 0 0 0 0 0 127 0"/>
<feOffset dy="4"/>
<feGaussianBlur stdDeviation="2"/>
<feColorMatrix type="matrix" values="0 0 0 0 0.454167 0 0 0 0 0.22545 0 0 0 0 0 0 0 0 0.25 0"/>
<feBlend mode="normal" in2="BackgroundImageFix" result="effect1_dropShadow"/>
<feBlend mode="normal" in="SourceGraphic" in2="effect1_dropShadow" result="shape"/>
</filter>
<linearGradient id="paint0_linear" x1="113.313" y1="32.5489" x2="114.73" y2="197.135" gradientUnits="userSpaceOnUse">
<stop stop-color="#FF9166"/>
<stop offset="0.0001" stop-color="#F7B16C"/>
<stop offset="1" stop-color="#FBB89E"/>
</linearGradient>
</defs>
</svg>
