<svg width="51" height="51" viewBox="0 0 51 51" fill="none" xmlns="http://www.w3.org/2000/svg">
<g filter="url(#filter0_d)">
<path d="M34.2547 44.2959C31.3452 45.6136 28.1871 46.2927 24.9931 46.2874C14.7224 46.2874 6.07668 39.3874 3.40816 29.9724M3.40816 29.9724C2.63789 26.9647 2.96477 23.7809 4.33012 20.9925M3.40816 29.9724C3.53419 30.4656 3.68986 30.9509 3.8743 31.4254M4.53811 20.5957C5.90576 18.0386 8.08851 16.0118 10.7397 14.837C13.391 13.6622 16.3587 13.4069 19.1716 14.1116C21.9845 14.8162 24.4814 16.4405 26.2657 18.7263C28.05 21.0122 29.0195 23.8287 29.0202 26.7286C29.0202 26.9565 29.0143 27.1836 29.0025 27.4086" stroke="#FAF5E8" stroke-miterlimit="10"/>
<path d="M34.3845 37.1415C34.3869 37.1437 34.3896 37.1454 34.3926 37.1467C34.4553 37.1836 34.5172 37.2205 34.5777 37.2625C35.2248 37.6927 35.7358 38.2986 36.0507 39.0091C36.3655 39.7195 36.4712 40.505 36.3552 41.2734C36.2495 41.9014 36.006 42.4983 35.6423 43.0211C35.2787 43.544 34.8038 43.9798 34.2517 44.2974" stroke="#FAF5E8" stroke-miterlimit="10"/>
<path d="M34.5895 37.2707C34.5866 37.2694 34.5838 37.2677 34.5814 37.2655C34.5195 37.2279 34.4575 37.1918 34.3963 37.1497C34.3933 37.1485 34.3906 37.1467 34.3882 37.1446C31.1842 35.0912 28.9995 31.4992 28.9995 27.4087" stroke="#FAF5E8" stroke-miterlimit="10"/>
<path d="M44.5091 34.9355C43.0731 37.4561 41.164 39.6757 38.8866 41.4726M44.4656 34.934C42.8429 34.684 41.4659 33.2583 41.485 31.5634M41.5035 31.958C41.8332 35.3862 41.4209 37.6107 40.7991 38.8572C40.7821 38.8926 40.7644 38.9309 40.7467 38.9619C40.2673 39.8929 39.6398 40.7398 38.8888 41.4696" stroke="#FAF5E8" stroke-miterlimit="10" stroke-linecap="round"/>
<path d="M3.16033 17.5554C3.59718 15.9851 4.20384 14.4671 4.96958 13.0283" stroke="#FAF5E8" stroke-miterlimit="10" stroke-linecap="round"/>
<path d="M44.5091 34.9355C46.4327 31.778 47.6253 28.5474 47.6253 23.6433C47.6253 11.1364 37.486 1.00001 24.982 1.00001C21.7307 0.996879 18.5171 1.69485 15.56 3.04634C12.603 4.39783 9.97212 6.37106 7.84683 8.8315" stroke="#FAF5E8" stroke-miterlimit="10" stroke-linecap="round"/>
<path d="M45.7688 32.6114C48.7139 16.9927 37.8555 9.33527 37.8555 9.33527C32.2662 5.79052 25.2047 9.31167 25.2047 9.31167C21.0227 6.31419 10.3796 7.04955 7.84683 8.82856C7.84683 8.82856 21.1179 -3.81334 37.8555 9.33527" stroke="#FAF5E8" stroke-miterlimit="10"/>
<path d="M5.16725 22.3577C4.50621 20.8967 4.14797 19.3168 4.11412 17.7135C4.08028 16.1102 4.37153 14.5167 4.97032 13.029" stroke="#FAF5E8" stroke-miterlimit="10"/>
<path d="M5.16725 22.3577C4.14415 20.9292 3.45823 19.2872 3.16106 17.5554" stroke="#FAF5E8" stroke-miterlimit="10" stroke-linecap="round"/>
<path d="M31.6474 2.08716C31.6474 2.08716 32.975 5.27271 34.7149 7.13802" stroke="#FAF5E8" stroke-miterlimit="10" stroke-linecap="round"/>
<path d="M26.2676 1.10767C26.2676 1.10767 28.0503 3.52984 31.1473 5.26976" stroke="#FAF5E8" stroke-miterlimit="10" stroke-linecap="round"/>
</g>
<defs>
<filter id="filter0_d" x="-1" y="0" width="52" height="52" filterUnits="userSpaceOnUse" color-interpolation-filters="sRGB">
<feFlood flood-opacity="0" result="BackgroundImageFix"/>
<feColorMatrix in="SourceAlpha" type="matrix" values="0 0 0 0 0 0 0 0 0 0 0 0 0 0 0 0 0 0 127 0"/>
<feOffset dy="2"/>
<feGaussianBlur stdDeviation="1"/>
<feColorMatrix type="matrix" values="0 0 0 0 0.383333 0 0 0 0 0.190288 0 0 0 0 0 0 0 0 0.25 0"/>
<feBlend mode="normal" in2="BackgroundImageFix" result="effect1_dropShadow"/>
<feBlend mode="normal" in="SourceGraphic" in2="effect1_dropShadow" result="shape"/>
</filter>
</defs>
</svg>
