<svg width="112" height="25" viewBox="0 0 112 25" fill="none" xmlns="http://www.w3.org/2000/svg">
<g filter="url(#filter0_d)">
<path d="M23.2814 19.4985C23.231 19.4989 23.1811 19.4899 23.1345 19.4719C23.0878 19.4539 23.0454 19.4273 23.0097 19.3937C22.9739 19.36 22.9455 19.32 22.9262 19.2758C22.9068 19.2317 22.8968 19.1843 22.8968 19.1365V8.4484C22.8968 7.8831 22.9345 6.97036 23.0097 5.71018H22.9709C22.8827 6.04533 22.8051 6.33692 22.731 6.58158C22.6751 6.78588 22.608 6.98725 22.5299 7.18486L17.9085 19.2505C17.8816 19.3192 17.8336 19.3786 17.7707 19.4211C17.7078 19.4635 17.6329 19.487 17.5557 19.4884C17.4786 19.487 17.4037 19.4635 17.3408 19.4211C17.2779 19.3786 17.2298 19.3192 17.2029 19.2505L12.5568 7.2653C12.3772 6.74886 12.2346 6.22146 12.13 5.68671H12.0947C12.1194 6.02187 12.137 6.42071 12.1441 6.85976C12.1511 7.29882 12.1441 7.78479 12.1441 8.32104V19.1365C12.1441 19.1843 12.1341 19.2317 12.1147 19.2758C12.0954 19.32 12.067 19.36 12.0312 19.3937C11.9955 19.4273 11.9531 19.4539 11.9064 19.4719C11.8598 19.4899 11.8099 19.4989 11.7595 19.4985H11.3186C11.2682 19.4989 11.2183 19.4899 11.1717 19.4719C11.125 19.4539 11.0826 19.4273 11.0469 19.3937C11.0111 19.36 10.9827 19.32 10.9634 19.2758C10.944 19.2317 10.934 19.1843 10.934 19.1365V4.31593C10.934 4.20623 10.957 4.09763 11.0017 3.99649C11.0465 3.89535 11.112 3.80371 11.1944 3.72692C11.2769 3.65014 11.3747 3.58976 11.482 3.54933C11.5893 3.50889 11.7041 3.48921 11.8195 3.49144C11.9976 3.49159 12.1713 3.54377 12.3171 3.64089C12.4628 3.73802 12.5736 3.8754 12.6344 4.0344L17.0054 15.5269C17.1006 15.7783 17.1924 16.0363 17.2841 16.3011C17.3758 16.5659 17.4569 16.8474 17.531 17.1424H17.5875L17.8168 16.3279C17.8873 16.0833 17.9755 15.8185 18.0849 15.537L22.5299 4.01093C22.587 3.85907 22.6923 3.72781 22.8314 3.63534C22.9705 3.54286 23.1363 3.49375 23.3061 3.49479C23.5244 3.49479 23.7338 3.57696 23.8885 3.72331C24.0432 3.86967 24.1306 4.06829 24.1316 4.27571V19.1365C24.1316 19.1843 24.1216 19.2317 24.1022 19.2758C24.0829 19.32 24.0545 19.36 24.0187 19.3937C23.983 19.4273 23.9405 19.4539 23.8939 19.4719C23.8473 19.4899 23.7974 19.4989 23.747 19.4985H23.2814Z" fill="#FAF5E8" stroke="#FAF5E8" stroke-miterlimit="10"/>
<path d="M36.2531 19.0494L34.9901 15.0275C34.966 14.952 34.917 14.8859 34.8503 14.8388C34.7836 14.7918 34.7028 14.7663 34.6197 14.7661H29.3986C29.3186 14.7698 29.2417 14.7969 29.1785 14.8437C29.1154 14.8905 29.069 14.9547 29.0458 15.0275L27.8146 19.0494C27.7736 19.1801 27.6893 19.2947 27.5743 19.3762C27.4592 19.4577 27.3196 19.5018 27.1761 19.5019C27.0723 19.502 26.9699 19.479 26.8772 19.4347C26.7845 19.3904 26.7041 19.326 26.6423 19.2468C26.5806 19.1676 26.5392 19.0757 26.5216 18.9786C26.504 18.8814 26.5107 18.7817 26.5411 18.6874L31.2224 4.06457C31.2755 3.89857 31.3834 3.7532 31.5301 3.64998C31.6769 3.54676 31.8548 3.49118 32.0374 3.49146C32.22 3.49118 32.3978 3.54676 32.5446 3.64998C32.6914 3.7532 32.7993 3.89857 32.8523 4.06457L37.5302 18.6841C37.5606 18.7786 37.5672 18.8786 37.5494 18.9761C37.5317 19.0735 37.49 19.1655 37.4279 19.2448C37.3657 19.3241 37.2848 19.3884 37.1916 19.4325C37.0985 19.4765 36.9957 19.4992 36.8916 19.4985C36.7486 19.4986 36.6093 19.455 36.4943 19.3742C36.3793 19.2933 36.2947 19.1794 36.2531 19.0494ZM32.2808 6.29336C32.2361 6.1526 32.1902 5.98837 32.1432 5.80068C32.0911 5.59081 32.0522 5.37817 32.0268 5.16389H31.988C31.9492 5.40185 31.9068 5.61635 31.861 5.80068C31.8151 5.98502 31.7693 6.1526 31.7234 6.29336L29.6773 12.9496C29.6605 13.0027 29.6568 13.0588 29.6664 13.1135C29.6761 13.1681 29.6988 13.22 29.7329 13.265C29.767 13.3101 29.8115 13.347 29.863 13.3731C29.9146 13.3992 29.9717 13.4137 30.0301 13.4154H33.9706C34.0291 13.4131 34.0863 13.3982 34.1378 13.3717C34.1893 13.3453 34.2337 13.308 34.2677 13.2628C34.3018 13.2175 34.3245 13.1655 34.3341 13.1106C34.3438 13.0557 34.3401 12.9995 34.3234 12.9462L32.2808 6.29336Z" fill="#FAF5E8" stroke="#FAF5E8" stroke-miterlimit="10"/>
<path d="M49.6623 19.4985C49.5181 19.4973 49.3767 19.4598 49.2528 19.3897C49.1288 19.3196 49.0267 19.2195 48.9567 19.0997L41.6753 6.64864C41.5801 6.48441 41.4884 6.31348 41.3966 6.1459C41.3096 5.98493 41.2353 5.818 41.1744 5.64652H41.1285C41.1285 5.78058 41.1532 5.96492 41.1603 6.20288C41.1673 6.44084 41.1603 6.73913 41.1603 7.09775V18.9053C41.1603 19.0626 41.0945 19.2135 40.9774 19.3248C40.8603 19.436 40.7015 19.4985 40.5359 19.4985C40.4536 19.499 40.372 19.4839 40.2958 19.4543C40.2197 19.4247 40.1504 19.3811 40.092 19.326C40.0337 19.2708 39.9874 19.2053 39.9558 19.1331C39.9242 19.0609 39.9079 18.9835 39.9079 18.9053V4.3193C39.9079 4.09975 39.9997 3.88918 40.1631 3.73393C40.3265 3.57868 40.5482 3.49147 40.7793 3.49147C40.9349 3.49069 41.0878 3.52982 41.2219 3.60474C41.356 3.67966 41.4664 3.78758 41.5413 3.91711L48.6745 16.1838C48.7874 16.3849 48.8897 16.5726 48.9814 16.7469C49.0732 16.9212 49.1543 17.082 49.2319 17.2329H49.2778C49.2531 16.9882 49.2354 16.7134 49.2213 16.4084C49.2072 16.1034 49.2037 15.7649 49.2037 15.4029V4.0914C49.2037 3.93228 49.2702 3.77969 49.3886 3.66718C49.5071 3.55467 49.6677 3.49147 49.8352 3.49147C50.0026 3.49147 50.1633 3.55467 50.2817 3.66718C50.4001 3.77969 50.4666 3.93228 50.4666 4.0914V18.721C50.4666 18.9272 50.3804 19.125 50.2269 19.2708C50.0734 19.4166 49.8653 19.4985 49.6482 19.4985H49.6623Z" fill="#FAF5E8" stroke="#FAF5E8" stroke-miterlimit="10"/>
<path d="M63.9217 18.1981C63.9217 18.2587 63.9064 18.3183 63.8769 18.372C63.8474 18.4257 63.8047 18.4718 63.7524 18.5065C62.5082 19.3259 61.0328 19.7698 59.519 19.78C58.5992 19.7936 57.6906 19.5873 56.8767 19.1801C56.0893 18.7721 55.41 18.199 54.8905 17.5043C54.3141 16.7347 53.8876 15.8731 53.6311 14.9605C53.3277 13.9045 53.1782 12.8141 53.1866 11.7195C53.184 10.9631 53.2549 10.208 53.3982 9.46394C53.5312 8.76846 53.7393 8.08785 54.0191 7.43289C54.281 6.82273 54.6185 6.24441 55.0246 5.71019C55.4082 5.20338 55.8668 4.75185 56.3863 4.36957C56.8979 3.99807 57.4699 3.70827 58.0796 3.51157C58.7194 3.30656 59.3907 3.20461 60.0658 3.20993C61.1541 3.19458 62.232 3.41223 63.2197 3.84672C63.3478 3.9038 63.4563 3.99426 63.5325 4.10757C63.6086 4.22089 63.6494 4.35241 63.6501 4.48687C63.6506 4.60573 63.6192 4.72276 63.559 4.82694C63.4988 4.93113 63.4116 5.01903 63.3058 5.08239C63.1999 5.14575 63.0788 5.18248 62.9539 5.18911C62.829 5.19574 62.7043 5.17207 62.5917 5.12032C61.7529 4.75012 60.839 4.55906 59.9141 4.56061C59.1319 4.55441 58.3617 4.74398 57.681 5.11026C57.0062 5.47462 56.4253 5.97724 55.9806 6.5816C55.4868 7.25678 55.1182 8.00716 54.8905 8.80033C54.6298 9.70325 54.5004 10.6358 54.506 11.5721C54.4913 12.4953 54.6004 13.4166 54.8305 14.3136C55.0238 15.0879 55.3607 15.8234 55.8254 16.4855C56.2443 17.0766 56.8038 17.5657 57.4587 17.9132C58.143 18.2635 58.9113 18.439 59.6883 18.4227C60.6853 18.4451 61.6671 18.1874 62.5106 17.682C62.5637 17.6487 62.6073 17.6034 62.6375 17.5502C62.6676 17.4969 62.6834 17.4374 62.6834 17.377V13.0602C62.6834 12.9633 62.6429 12.8704 62.5708 12.8018C62.4987 12.7333 62.4009 12.6948 62.2989 12.6948H60.3198C60.1327 12.6948 59.9532 12.6242 59.8209 12.4985C59.6886 12.3728 59.6142 12.2023 59.6142 12.0245C59.6142 11.8468 59.6886 11.6763 59.8209 11.5505C59.9532 11.4248 60.1327 11.3542 60.3198 11.3542H63.5513C63.6511 11.3569 63.7458 11.3966 63.8151 11.4649C63.8844 11.5332 63.9227 11.6247 63.9217 11.7195V18.1981Z" fill="#FAF5E8" stroke="#FAF5E8" stroke-miterlimit="10"/>
<path d="M76.6006 13.0602C76.6006 17.5289 74.9414 19.7633 71.6229 19.7633C68.462 19.7633 66.8815 17.6082 66.8815 13.2981V4.08468C66.8824 3.92704 66.949 3.77616 67.0667 3.665C67.1843 3.55385 67.3435 3.49145 67.5095 3.49146C67.6754 3.49145 67.8346 3.55385 67.9522 3.665C68.0699 3.77616 68.1365 3.92704 68.1374 4.08468V13.1808C68.1374 14.937 68.4361 16.2508 69.0335 17.1223C69.6309 17.9937 70.5504 18.4271 71.7922 18.4227C74.1441 18.4227 75.3259 16.7257 75.3377 13.3316V4.08468C75.3386 3.92704 75.4052 3.77616 75.5228 3.665C75.6405 3.55385 75.7997 3.49145 75.9656 3.49146C76.1312 3.49146 76.2901 3.55396 76.4072 3.66521C76.5243 3.77646 76.59 3.92735 76.59 4.08468L76.6006 13.0602Z" fill="#FAF5E8" stroke="#FAF5E8" stroke-miterlimit="10"/>
<path d="M88.5634 18.9053V12.3898C88.5634 12.293 88.5229 12.2 88.4508 12.1315C88.3787 12.063 88.2809 12.0245 88.1789 12.0245H81.5784C81.4764 12.0245 81.3786 12.063 81.3065 12.1315C81.2343 12.2 81.1938 12.293 81.1938 12.3898V18.9053C81.1929 19.0629 81.1263 19.2138 81.0087 19.325C80.891 19.4361 80.7318 19.4985 80.5659 19.4985C80.4 19.4985 80.2408 19.4361 80.1231 19.325C80.0054 19.2138 79.9389 19.0629 79.9379 18.9053V4.08468C79.9389 3.92704 80.0054 3.77616 80.1231 3.665C80.2408 3.55385 80.4 3.49145 80.5659 3.49146C80.7318 3.49145 80.891 3.55385 81.0087 3.665C81.1263 3.77616 81.1929 3.92704 81.1938 4.08468V10.3052C81.1938 10.353 81.2038 10.4003 81.2232 10.4445C81.2425 10.4886 81.2709 10.5287 81.3067 10.5623C81.3424 10.596 81.3848 10.6226 81.4315 10.6406C81.4781 10.6586 81.528 10.6676 81.5784 10.6671H88.1789C88.2292 10.6676 88.2791 10.6586 88.3258 10.6406C88.3724 10.6226 88.4148 10.596 88.4506 10.5623C88.4863 10.5287 88.5147 10.4886 88.5341 10.4445C88.5535 10.4003 88.5634 10.353 88.5634 10.3052V4.08468C88.5644 3.92704 88.6309 3.77616 88.7486 3.665C88.8663 3.55385 89.0254 3.49145 89.1914 3.49146C89.3573 3.49145 89.5165 3.55385 89.6342 3.665C89.7518 3.77616 89.8184 3.92704 89.8193 4.08468V18.9053C89.8184 19.0629 89.7518 19.2138 89.6342 19.325C89.5165 19.4361 89.3573 19.4985 89.1914 19.4985C89.0254 19.4985 88.8663 19.4361 88.7486 19.325C88.6309 19.2138 88.5644 19.0629 88.5634 18.9053Z" fill="#FAF5E8" stroke="#FAF5E8" stroke-miterlimit="10"/>
<path d="M101.941 19.0494L100.674 15.0275C100.652 14.9542 100.606 14.8894 100.543 14.8424C100.479 14.7955 100.402 14.7688 100.322 14.7661H95.0757C94.9954 14.7688 94.9181 14.7955 94.8547 14.8424C94.7914 14.8894 94.7452 14.9542 94.723 15.0275L93.4918 19.0494C93.4508 19.1801 93.3665 19.2947 93.2514 19.3762C93.1364 19.4577 92.9967 19.5018 92.8532 19.5019C92.7495 19.502 92.6471 19.479 92.5544 19.4347C92.4617 19.3904 92.3813 19.326 92.3195 19.2468C92.2577 19.1676 92.2164 19.0757 92.1988 18.9786C92.1812 18.8814 92.1879 18.7817 92.2182 18.6874L96.9102 4.06458C96.9639 3.8983 97.0725 3.75283 97.2198 3.64964C97.3672 3.54645 97.5456 3.49099 97.7287 3.49146C97.9113 3.49118 98.0891 3.54676 98.2359 3.64998C98.3827 3.7532 98.4905 3.89857 98.5436 4.06458L103.218 18.6841C103.248 18.7786 103.255 18.8786 103.237 18.9761C103.219 19.0735 103.178 19.1655 103.116 19.2448C103.053 19.3241 102.973 19.3884 102.879 19.4325C102.786 19.4765 102.683 19.4992 102.579 19.4985C102.436 19.4992 102.297 19.4558 102.182 19.3748C102.066 19.2939 101.982 19.1797 101.941 19.0494ZM97.9615 6.29336C97.9192 6.1526 97.8733 5.98837 97.8274 5.80068C97.774 5.5909 97.7339 5.37825 97.7075 5.16389H97.6722C97.6334 5.40185 97.5911 5.61635 97.5452 5.80068C97.4994 5.98502 97.45 6.1526 97.4076 6.29336L95.365 12.9496C95.3482 13.0027 95.3445 13.0588 95.3542 13.1135C95.3638 13.1682 95.3866 13.22 95.4207 13.265C95.4548 13.3101 95.4993 13.347 95.5508 13.3731C95.6023 13.3992 95.6595 13.4137 95.7178 13.4154H99.6619C99.7201 13.4125 99.7769 13.3972 99.8281 13.3705C99.8792 13.3439 99.9234 13.3066 99.9573 13.2616C99.9912 13.2165 100.014 13.1647 100.024 13.1101C100.034 13.0555 100.031 12.9995 100.015 12.9462L97.9615 6.29336Z" fill="#FAF5E8" stroke="#FAF5E8" stroke-miterlimit="10"/>
</g>
<defs>
<filter id="filter0_d" x="1" y="2" width="110" height="23" filterUnits="userSpaceOnUse" color-interpolation-filters="sRGB">
<feFlood flood-opacity="0" result="BackgroundImageFix"/>
<feColorMatrix in="SourceAlpha" type="matrix" values="0 0 0 0 0 0 0 0 0 0 0 0 0 0 0 0 0 0 127 0"/>
<feOffset dy="2"/>
<feGaussianBlur stdDeviation="1"/>
<feColorMatrix type="matrix" values="0 0 0 0 0.320833 0 0 0 0 0.159263 0 0 0 0 0 0 0 0 0.25 0"/>
<feBlend mode="normal" in2="BackgroundImageFix" result="effect1_dropShadow"/>
<feBlend mode="normal" in="SourceGraphic" in2="effect1_dropShadow" result="shape"/>
</filter>
</defs>
</svg>
