<svg width="202" height="45" viewBox="0 0 202 45" fill="none" xmlns="http://www.w3.org/2000/svg">
<g filter="url(#filter0_d)">
<path d="M38.6494 35.918C38.5535 35.9189 38.4583 35.9003 38.3695 35.8634C38.2806 35.8265 38.1998 35.7719 38.1316 35.7028C38.0635 35.6337 38.0094 35.5515 37.9725 35.4609C37.9356 35.3703 37.9166 35.2731 37.9166 35.175V13.2362C37.9166 12.0758 37.9883 10.2023 38.1317 7.61563H38.0578C37.8897 8.30358 37.7418 8.9021 37.6006 9.4043C37.4941 9.82365 37.3662 10.237 37.2174 10.6426L28.4105 35.4089C28.3593 35.5499 28.2678 35.6719 28.1479 35.759C28.028 35.8462 27.8853 35.8943 27.7383 35.8973C27.5913 35.8943 27.4485 35.8462 27.3286 35.759C27.2087 35.6719 27.1172 35.5499 27.066 35.4089L18.2121 10.8077C17.8697 9.74767 17.598 8.66511 17.3986 7.56747H17.3314C17.3784 8.25542 17.412 9.07409 17.4255 9.9753C17.4389 10.8765 17.4255 11.8741 17.4255 12.9748V35.175C17.4255 35.2731 17.4065 35.3703 17.3696 35.4609C17.3327 35.5515 17.2786 35.6337 17.2105 35.7028C17.1423 35.7719 17.0615 35.8265 16.9726 35.8634C16.8838 35.9003 16.7886 35.9189 16.6927 35.918H15.8524C15.7564 35.9189 15.6613 35.9003 15.5724 35.8634C15.4836 35.8265 15.4027 35.7719 15.3346 35.7028C15.2665 35.6337 15.2124 35.5515 15.1755 35.4609C15.1386 35.3703 15.1196 35.2731 15.1196 35.175V4.75375C15.1195 4.52858 15.1634 4.30566 15.2486 4.09806C15.3338 3.89046 15.4586 3.70235 15.6158 3.54474C15.7729 3.38713 15.9592 3.2632 16.1638 3.1802C16.3683 3.0972 16.587 3.05681 16.807 3.06138C17.1463 3.06169 17.4773 3.16879 17.7551 3.36816C18.0329 3.56752 18.2441 3.84951 18.36 4.17587L26.6895 27.7657C26.871 28.2817 27.0458 28.8114 27.2206 29.3549C27.3954 29.8984 27.55 30.4763 27.6912 31.0817H27.7988L28.2358 29.4099C28.3702 28.9077 28.5383 28.3643 28.7467 27.7864L37.2174 4.12771C37.3262 3.81598 37.5269 3.54656 37.7919 3.35675C38.0569 3.16693 38.373 3.06612 38.6964 3.06826C39.1125 3.06826 39.5116 3.23692 39.8064 3.53733C40.1013 3.83774 40.2678 4.24544 40.2696 4.67119V35.175C40.2696 35.2731 40.2506 35.3703 40.2137 35.4609C40.1768 35.5515 40.1227 35.6337 40.0545 35.7028C39.9864 35.7719 39.9056 35.8265 39.8167 35.8634C39.7278 35.9003 39.6327 35.9189 39.5368 35.918H38.6494Z" fill="#FAF5E8" stroke="#FAF5E8" stroke-miterlimit="10"/>
<path d="M63.3691 34.9961L60.9624 26.7407C60.9163 26.5857 60.8229 26.45 60.6958 26.3534C60.5688 26.2568 60.4148 26.2045 60.2565 26.2041H50.3067C50.1543 26.2116 50.0078 26.2672 49.8874 26.3633C49.7671 26.4594 49.6787 26.5912 49.6345 26.7407L47.2882 34.9961C47.2101 35.2643 47.0494 35.4996 46.8302 35.6669C46.611 35.8342 46.3449 35.9247 46.0714 35.9249C45.8736 35.9251 45.6786 35.8779 45.5019 35.787C45.3253 35.696 45.172 35.564 45.0543 35.4014C44.9366 35.2388 44.8578 35.0502 44.8243 34.8508C44.7907 34.6513 44.8034 34.4466 44.8613 34.2531L53.7824 4.2378C53.8835 3.89705 54.0891 3.59866 54.3688 3.38679C54.6485 3.17492 54.9874 3.06083 55.3354 3.0614C55.6834 3.06083 56.0223 3.17492 56.302 3.38679C56.5817 3.59866 56.7873 3.89705 56.8884 4.2378L65.8028 34.2463C65.8608 34.4403 65.8734 34.6456 65.8395 34.8456C65.8057 35.0455 65.7263 35.2345 65.6078 35.3973C65.4894 35.56 65.3351 35.6919 65.1576 35.7824C64.9801 35.8729 64.7843 35.9193 64.586 35.918C64.3133 35.9183 64.0478 35.8288 63.8287 35.6628C63.6096 35.4968 63.4485 35.2631 63.3691 34.9961ZM55.7993 8.81268C55.7141 8.52374 55.6267 8.18665 55.5371 7.80139C55.4377 7.37061 55.3636 6.93412 55.3152 6.49428H55.2413C55.1673 6.98273 55.0866 7.42302 54.9992 7.80139C54.9119 8.17977 54.8245 8.52374 54.7371 8.81268L50.8378 22.4754C50.8059 22.5844 50.7988 22.6995 50.8172 22.8118C50.8355 22.9241 50.8789 23.0305 50.9439 23.123C51.0088 23.2154 51.0937 23.2913 51.1919 23.3448C51.29 23.3983 51.3989 23.428 51.5101 23.4317H59.0195C59.131 23.427 59.2399 23.3963 59.338 23.342C59.4362 23.2877 59.5209 23.2112 59.5857 23.1183C59.6506 23.0254 59.6938 22.9186 59.7122 22.806C59.7306 22.6934 59.7236 22.5779 59.6918 22.4685L55.7993 8.81268Z" fill="#FAF5E8" stroke="#FAF5E8" stroke-miterlimit="10"/>
<path d="M88.9225 35.918C88.6477 35.9155 88.3784 35.8384 88.1421 35.6946C87.9059 35.5507 87.7112 35.3453 87.578 35.0993L73.7021 9.54187C73.5206 9.20478 73.3458 8.85392 73.171 8.50994C73.0051 8.17952 72.8635 7.83689 72.7475 7.4849H72.6601C72.6601 7.76008 72.7071 8.13845 72.7206 8.6269C72.734 9.11534 72.7206 9.72762 72.7206 10.4637V34.7003C72.7206 35.0232 72.5952 35.3329 72.3721 35.5613C72.1489 35.7897 71.8462 35.918 71.5306 35.918C71.3738 35.9189 71.2184 35.888 71.0732 35.8272C70.9281 35.7665 70.7961 35.6769 70.6849 35.5638C70.5737 35.4506 70.4854 35.316 70.4252 35.1679C70.365 35.0197 70.334 34.8608 70.334 34.7003V4.76061C70.334 4.30994 70.5089 3.87773 70.8203 3.55906C71.1318 3.24039 71.5541 3.06136 71.9945 3.06136C72.291 3.05977 72.5824 3.1401 72.838 3.29388C73.0936 3.44765 73.3038 3.66917 73.4466 3.93506L87.0401 29.1141C87.2553 29.5269 87.4502 29.9121 87.625 30.2699C87.7998 30.6276 87.9544 30.9578 88.1024 31.2674H88.1897C88.1427 30.7652 88.1091 30.2011 88.0822 29.575C88.0553 28.949 88.0486 28.2542 88.0486 27.5112V4.2928C88.0486 3.9662 88.1754 3.65298 88.401 3.42204C88.6267 3.1911 88.9328 3.06136 89.2519 3.06136C89.5711 3.06136 89.8772 3.1911 90.1029 3.42204C90.3285 3.65298 90.4553 3.9662 90.4553 4.2928V34.3219C90.4553 34.7452 90.291 35.1512 89.9985 35.4505C89.706 35.7498 89.3093 35.918 88.8956 35.918H88.9225Z" fill="#FAF5E8" stroke="#FAF5E8" stroke-miterlimit="10"/>
<path d="M116.096 33.2487C116.096 33.373 116.067 33.4955 116.011 33.6057C115.954 33.7159 115.873 33.8106 115.773 33.8816C113.402 35.5636 110.591 36.4747 107.706 36.4958C105.953 36.5236 104.222 36.1001 102.671 35.2644C101.17 34.4268 99.8757 33.2505 98.8857 31.8246C97.7873 30.2448 96.9744 28.4763 96.4857 26.6031C95.9076 24.4356 95.6226 22.1973 95.6386 19.9506C95.6337 18.3979 95.7687 16.848 96.0419 15.3207C96.2954 13.8931 96.6919 12.4961 97.2252 11.1517C97.7242 9.89925 98.3674 8.71218 99.1412 7.61561C99.8722 6.57532 100.746 5.64849 101.736 4.8638C102.711 4.10125 103.801 3.50641 104.963 3.10265C106.182 2.68185 107.461 2.47258 108.748 2.48349C110.822 2.452 112.876 2.89875 114.758 3.7906C115.002 3.90776 115.209 4.09343 115.354 4.32602C115.499 4.55862 115.577 4.8286 115.578 5.10459C115.579 5.34857 115.52 5.58879 115.405 5.80263C115.29 6.01648 115.124 6.19692 114.922 6.32698C114.721 6.45703 114.49 6.53241 114.252 6.54603C114.014 6.55965 113.776 6.51105 113.562 6.40482C111.963 5.64494 110.221 5.25277 108.459 5.25594C106.968 5.24321 105.501 5.63234 104.203 6.38418C102.917 7.13208 101.811 8.16378 100.963 9.40429C100.022 10.7902 99.3196 12.3304 98.8857 13.9585C98.3889 15.8119 98.1423 17.7261 98.1529 19.6479C98.125 21.543 98.3328 23.434 98.7714 25.2753C99.1397 26.8647 99.7817 28.3742 100.667 29.7333C101.466 30.9467 102.532 31.9507 103.78 32.6639C105.084 33.3829 106.548 33.7432 108.029 33.7096C109.929 33.7556 111.8 33.2267 113.407 32.1893C113.508 32.121 113.591 32.028 113.649 31.9187C113.706 31.8095 113.736 31.6873 113.736 31.5632V22.7024C113.736 22.5035 113.659 22.3128 113.522 22.1722C113.384 22.0315 113.198 21.9525 113.004 21.9525H109.232C108.875 21.9525 108.533 21.8076 108.281 21.5495C108.029 21.2915 107.888 20.9415 107.888 20.5766C107.888 20.2117 108.029 19.8618 108.281 19.6037C108.533 19.3457 108.875 19.2007 109.232 19.2007H115.39C115.58 19.2061 115.761 19.2877 115.893 19.428C116.025 19.5682 116.098 19.7559 116.096 19.9506V33.2487Z" fill="#FAF5E8" stroke="#FAF5E8" stroke-miterlimit="10"/>
<path d="M140.258 22.7024C140.258 31.8751 137.096 36.4615 130.772 36.4615C124.748 36.4615 121.736 32.0379 121.736 23.1909V4.27908C121.738 3.9555 121.865 3.64579 122.089 3.41763C122.314 3.18947 122.617 3.0614 122.933 3.0614C123.249 3.0614 123.553 3.18947 123.777 3.41763C124.001 3.64579 124.128 3.9555 124.13 4.27908V22.9501C124.13 26.555 124.699 29.2517 125.837 31.0404C126.976 32.8291 128.728 33.7188 131.095 33.7097C135.576 33.7097 137.829 30.2263 137.851 23.2597V4.27908C137.853 3.9555 137.98 3.64579 138.204 3.41763C138.428 3.18947 138.731 3.0614 139.048 3.0614C139.363 3.0614 139.666 3.18969 139.889 3.41805C140.112 3.64641 140.238 3.95613 140.238 4.27908L140.258 22.7024Z" fill="#FAF5E8" stroke="#FAF5E8" stroke-miterlimit="10"/>
<path d="M163.055 34.7003V21.3265C163.055 21.1276 162.978 20.9369 162.84 20.7963C162.703 20.6557 162.516 20.5767 162.322 20.5767H149.744C149.549 20.5767 149.363 20.6557 149.226 20.7963C149.088 20.9369 149.011 21.1276 149.011 21.3265V34.7003C149.009 35.0239 148.882 35.3336 148.658 35.5618C148.434 35.7899 148.13 35.918 147.814 35.918C147.498 35.918 147.195 35.7899 146.97 35.5618C146.746 35.3336 146.619 35.0239 146.618 34.7003V4.27908C146.619 3.9555 146.746 3.64579 146.97 3.41763C147.195 3.18947 147.498 3.0614 147.814 3.0614C148.13 3.0614 148.434 3.18947 148.658 3.41763C148.882 3.64579 149.009 3.9555 149.011 4.27908V17.0475C149.011 17.1456 149.03 17.2428 149.067 17.3334C149.104 17.424 149.158 17.5062 149.226 17.5753C149.294 17.6444 149.375 17.699 149.464 17.7359C149.553 17.7728 149.648 17.7914 149.744 17.7905H162.322C162.418 17.7914 162.513 17.7728 162.602 17.7359C162.691 17.699 162.772 17.6444 162.84 17.5753C162.908 17.5062 162.962 17.424 162.999 17.3334C163.036 17.2428 163.055 17.1456 163.055 17.0475V4.27908C163.057 3.9555 163.183 3.64579 163.408 3.41763C163.632 3.18947 163.935 3.0614 164.251 3.0614C164.568 3.0614 164.871 3.18947 165.095 3.41763C165.319 3.64579 165.446 3.9555 165.448 4.27908V34.7003C165.446 35.0239 165.319 35.3336 165.095 35.5618C164.871 35.7899 164.568 35.918 164.251 35.918C163.935 35.918 163.632 35.7899 163.408 35.5618C163.183 35.3336 163.057 35.0239 163.055 34.7003Z" fill="#FAF5E8" stroke="#FAF5E8" stroke-miterlimit="10"/>
<path d="M188.548 34.9961L186.134 26.7407C186.092 26.5902 186.004 26.4572 185.883 26.3608C185.762 26.2644 185.615 26.2096 185.462 26.2041H175.465C175.312 26.2096 175.165 26.2644 175.044 26.3608C174.923 26.4572 174.835 26.5902 174.793 26.7407L172.447 34.9961C172.368 35.2643 172.208 35.4996 171.989 35.6669C171.769 35.8342 171.503 35.9247 171.23 35.9249C171.032 35.9251 170.837 35.8779 170.66 35.787C170.484 35.696 170.33 35.564 170.213 35.4014C170.095 35.2388 170.016 35.0502 169.983 34.8508C169.949 34.6513 169.962 34.4467 170.02 34.2532L178.961 4.23781C179.063 3.89651 179.27 3.59792 179.551 3.3861C179.832 3.17428 180.172 3.06045 180.521 3.06141C180.869 3.06083 181.208 3.17492 181.487 3.38679C181.767 3.59867 181.973 3.89706 182.074 4.23781L190.981 34.2463C191.039 34.4403 191.052 34.6456 191.018 34.8456C190.984 35.0455 190.905 35.2345 190.786 35.3973C190.668 35.56 190.514 35.692 190.336 35.7824C190.159 35.8729 189.963 35.9193 189.765 35.918C189.492 35.9194 189.226 35.8303 189.006 35.6642C188.787 35.498 188.626 35.2636 188.548 34.9961ZM180.964 8.81269C180.884 8.52375 180.796 8.18665 180.709 7.8014C180.607 7.3708 180.531 6.9343 180.48 6.49429H180.413C180.339 6.98273 180.258 7.42302 180.171 7.8014C180.084 8.17977 179.99 8.52375 179.909 8.81269L176.016 22.4754C175.984 22.5844 175.977 22.6995 175.996 22.8118C176.014 22.9241 176.057 23.0305 176.122 23.123C176.187 23.2154 176.272 23.2913 176.37 23.3448C176.469 23.3983 176.577 23.428 176.689 23.4317H184.205C184.316 23.4257 184.424 23.3942 184.521 23.3395C184.619 23.2848 184.703 23.2084 184.768 23.1158C184.832 23.0233 184.876 22.917 184.895 22.805C184.913 22.6929 184.908 22.5779 184.877 22.4685L180.964 8.81269Z" fill="#FAF5E8" stroke="#FAF5E8" stroke-miterlimit="10"/>
</g>
<defs>
<filter id="filter0_d" x="-4" y="0" width="210" height="47" filterUnits="userSpaceOnUse" color-interpolation-filters="sRGB">
<feFlood flood-opacity="0" result="BackgroundImageFix"/>
<feColorMatrix in="SourceAlpha" type="matrix" values="0 0 0 0 0 0 0 0 0 0 0 0 0 0 0 0 0 0 127 0"/>
<feOffset dy="4"/>
<feGaussianBlur stdDeviation="2"/>
<feColorMatrix type="matrix" values="0 0 0 0 0.320833 0 0 0 0 0.159263 0 0 0 0 0 0 0 0 0.25 0"/>
<feBlend mode="normal" in2="BackgroundImageFix" result="effect1_dropShadow"/>
<feBlend mode="normal" in="SourceGraphic" in2="effect1_dropShadow" result="shape"/>
</filter>
</defs>
</svg>
